<svg xmlns="http://www.w3.org/2000/svg" width="337.311" height="61.275" viewBox="0 0 337.311 61.275">
  <g id="Group_37993" data-name="Group 37993" transform="translate(-52.815 -371.338)">
    <path id="Path_917" data-name="Path 917" d="M134.14,410.956c.738-2.766,1.42-5.319,2.1-7.871.4-1.512.821-3.021,1.192-4.541.107-.443.284-.607.746-.589.94.034,1.883.042,2.822,0,.519-.024.661.188.781.651.99,3.8,2.011,7.591,3.024,11.383.065.246.137.49.214.769a1.21,1.21,0,0,0,.31-.738c.955-3.809,1.921-7.615,2.85-11.429.118-.483.283-.649.785-.636,1.4.035,2.795.007,4.192.015.8,0,.949.2.727.984q-2.744,9.646-5.489,19.29c-.126.444-.3.639-.81.623-1.424-.045-2.852-.039-4.277,0a.775.775,0,0,1-.929-.692c-.81-2.964-1.678-5.912-2.527-8.864-.062-.217-.135-.431-.261-.826l-2.129,7.4c-.157.546-.313,1.093-.471,1.64-.383,1.327-.383,1.327-1.8,1.327-1.2,0-2.4-.02-3.594.011-.431.011-.661-.091-.787-.536q-2.754-9.731-5.541-19.452c-.186-.647.019-.907.672-.9,1.312.009,2.63.068,3.935-.022.795-.054,1.067.222,1.24.952.894,3.736,1.836,7.461,2.764,11.188.056.219.129.435.26.876" transform="translate(25.629 9.416)" fill="#4d1747"/>
    <path id="Path_918" data-name="Path 918" d="M301.316,409.713v-3.8c0-2.338.019-4.678-.011-7.017-.009-.708.241-.971.948-.945,1.082.041,2.168.01,3.251.011s1.114.016,1.114,1.1q0,9.329,0,18.656a1.433,1.433,0,0,0,0,.171c.1.766-.268,1-1,.972-1.167-.042-2.34-.039-3.507,0a1.024,1.024,0,0,1-1.016-.58c-2.177-3.442-4.379-6.87-6.574-10.3-.145-.228-.3-.452-.578-.886v1.066c0,3.251-.014,6.5.012,9.755.005.708-.242.968-.949.945-1.167-.041-2.338-.031-3.507,0-.62.015-.868-.215-.867-.848q.018-9.585,0-19.169c0-.684.271-.9.919-.883,1.2.031,2.4.035,3.594,0a1.024,1.024,0,0,1,1.016.579c2.177,3.442,4.378,6.87,6.572,10.3.146.228.3.452.578.886" transform="translate(83.49 9.42)" fill="#4d1747"/>
    <path id="Path_919" data-name="Path 919" d="M277.639,410.142c1.079,0,2.068-.013,3.055.007.429.009.473-.15.333-.5-.52-1.327-1.029-2.658-1.6-4.151-.624,1.628-1.188,3.1-1.783,4.648m9.3,8.727c-.7-.072-1.743.343-2.343-.15-.555-.458-.659-1.466-.952-2.238-.6-1.58-.593-1.582-2.3-1.582-1.655,0-3.309.015-4.963-.009a.7.7,0,0,0-.8.558c-.324.971-.734,1.912-1.063,2.881a.7.7,0,0,1-.8.551c-1.34-.028-2.681-.005-4.022-.012-.873-.005-1.006-.209-.673-1.034q3.4-8.427,6.815-16.85c.4-.994.516-2.368,1.331-2.861.779-.469,2.049-.131,3.1-.135,1.5-.007,1.506,0,2.084,1.423q3.7,9.134,7.4,18.269c.413,1.022.3,1.188-.8,1.19-.628,0-1.255,0-2.024,0" transform="translate(76.489 9.394)" fill="#4d1747"/>
    <path id="Path_920" data-name="Path 920" d="M215.307,408.379c0-3.136.022-6.273-.015-9.411-.009-.8.265-1.035,1.045-1.028q5.135.053,10.268,0c.754-.007,1.021.263.991,1-.039.968-.027,1.939,0,2.907.015.624-.242.872-.864.864-1.825-.018-3.652.016-5.476-.019-.543-.009-.688.156-.654.676.056.846-.272,1.963.154,2.475.447.535,1.6.134,2.448.157q1.582.043,3.166,0c.641-.018.952.191.929.879-.035,1-.034,2,0,3,.023.673-.264.907-.914.9-1.683-.022-3.366.023-5.048-.024-.624-.016-.792.184-.731.768.087.842-.355,1.973.183,2.453.464.416,1.572.121,2.4.126,1.17.009,2.34.024,3.508-.005.665-.018.925.251.906.911-.03,1.026-.012,2.054-.007,3.08,0,.525-.221.775-.772.773-3.565-.009-7.13-.016-10.7,0-.737,0-.823-.389-.821-.982.014-3.166.007-6.331.007-9.5" transform="translate(57.523 9.419)" fill="#4d1747"/>
    <path id="Path_921" data-name="Path 921" d="M175.981,408.383c0-3.137.022-6.275-.015-9.412-.009-.795.259-1.037,1.043-1.03q5.135.053,10.268,0c.75-.007,1.025.257.994,1-.039.94-.038,1.883,0,2.823.027.7-.244.968-.951.956-1.8-.031-3.594.011-5.389-.024-.538-.009-.692.149-.657.672.056.848-.274,1.966.152,2.478.447.536,1.6.134,2.448.158,1.053.03,2.111.037,3.164,0,.72-.027.96.271.933.963-.038.968-.034,1.94,0,2.909.023.672-.259.913-.911.9-1.683-.023-3.366.008-5.048-.016-.505-.008-.8.049-.737.672.095.869-.363,2.041.187,2.536.477.431,1.625.127,2.477.133,1.17.008,2.34.014,3.508,0,.58-.008.83.238.819.819-.016,1.026-.019,2.053,0,3.079.011.609-.223.869-.858.865q-5.262-.026-10.524,0c-.741.005-.918-.31-.913-.982.022-3.166.01-6.332.01-9.5" transform="translate(43.6 9.418)" fill="#4d1747"/>
    <path id="Path_922" data-name="Path 922" d="M263.939,419.267c-6.682.027-11.94-5.044-11.836-10.995.088-5,4.318-9.65,9.458-10.407a12.642,12.642,0,0,1,8.105,1.373c.619.337.895.662.443,1.392a25.171,25.171,0,0,0-1.426,2.815c-.3.661-.657.726-1.267.368a6.943,6.943,0,0,0-5.541-.59,5.5,5.5,0,0,0-4.088,5.541,5.65,5.65,0,0,0,5.136,5.206,7.045,7.045,0,0,0,4.612-.872c.574-.347.869-.145,1.127.394.49,1.028.983,2.057,1.538,3.048.3.535.154.784-.322,1.071a12.177,12.177,0,0,1-5.939,1.656" transform="translate(70.555 9.336)" fill="#4d1747"/>
    <path id="Path_923" data-name="Path 923" d="M166.51,419.269a12.337,12.337,0,0,1-6.827-2.437c-.5-.362-.55-.653-.21-1.164.612-.925,1.178-1.883,1.713-2.856.372-.678.715-.81,1.391-.31a7.028,7.028,0,0,0,4.678,1.8,4.322,4.322,0,0,0,1.171-.214,1.339,1.339,0,0,0,.428-2.375,9.943,9.943,0,0,0-2.378-1.328,16.142,16.142,0,0,1-3.064-1.676,5.806,5.806,0,0,1,0-9.447,8.063,8.063,0,0,1,7.229-1.217,12.762,12.762,0,0,1,3.239,1.292c.559.313.723.668.368,1.28-.5.861-.93,1.762-1.345,2.666-.279.611-.608.72-1.2.378a6.319,6.319,0,0,0-4.065-1.017c-.7.091-1.288.333-1.464,1.089s.386,1.08.887,1.4a20.418,20.418,0,0,0,3.076,1.469,9.6,9.6,0,0,1,3.74,2.625,6.045,6.045,0,0,1-1.982,9,11.186,11.186,0,0,1-5.388,1.039" transform="translate(37.684 9.334)" fill="#4d1747"/>
    <path id="Path_924" data-name="Path 924" d="M205.635,402.285c-.871-.2-1.03.234-.968.98.05.621.009,1.25.009,1.875,0,2.019.191,2.165,2.206,1.69.054-.014.107-.037.161-.053a2.195,2.195,0,0,0,.016-4.26,12.443,12.443,0,0,0-1.424-.233m-6.26,6.058c0-3.11.026-6.22-.016-9.331-.012-.844.282-1.094,1.1-1.06,2.762.112,5.538-.206,8.289.175a6.043,6.043,0,0,1,5.522,6.307,6.442,6.442,0,0,1-5.476,6.719,17.057,17.057,0,0,1-3.414.149c-.548-.015-.723.125-.712.7.037,1.969-.007,3.938.026,5.906.011.7-.223.98-.938.953-1.112-.041-2.229-.057-3.338,0-.858.047-1.063-.3-1.053-1.1.037-3.139.015-6.277.015-9.416" transform="translate(51.882 9.416)" fill="#4d1747"/>
    <path id="Path_925" data-name="Path 925" d="M229.849,408.312c0-3.106.02-6.214-.015-9.32-.008-.774.217-1.087,1.022-1.047,1.109.055,2.225.05,3.334,0,.766-.033.978.278.974,1-.023,4.761.005,9.52-.03,14.28-.005.712.167.909.883.884,1.709-.057,3.42.007,5.129-.03.747-.016,1.025.259.994,1-.043,1-.015,1.994-.009,2.992,0,.523-.217.776-.768.775q-5.386-.014-10.774,0c-.707,0-.745-.429-.743-.964.008-3.193,0-6.384,0-9.577" transform="translate(62.672 9.419)" fill="#4d1747"/>
    <path id="Path_926" data-name="Path 926" d="M150.818,408.4c0-3.136.019-6.272-.014-9.407-.008-.768.206-1.091,1.017-1.052,1.139.057,2.28.032,3.42.007.6-.014.888.177.887.827q-.018,9.619,0,19.241c0,.646-.278.845-.883.831-1.169-.026-2.338-.038-3.506,0-.719.024-.938-.265-.933-.959.024-3.163.011-6.327.011-9.492" transform="translate(34.692 9.419)" fill="#4d1747"/>
    <path id="Path_927" data-name="Path 927" d="M244.011,408.4c0-3.136.019-6.272-.014-9.406-.008-.769.209-1.09,1.018-1.051,1.137.055,2.28.032,3.42.007.6-.014.887.18.886.829q-.018,9.619,0,19.241c0,.646-.28.844-.884.83-1.169-.026-2.338-.038-3.506,0-.72.024-.937-.268-.932-.96.024-3.163.011-6.327.011-9.492" transform="translate(67.686 9.419)" fill="#4d1747"/>
    <path id="Path_928" data-name="Path 928" d="M81.57,427.829a1.374,1.374,0,0,0,.727.156.094.094,0,0,0,.119-.084c.011-.077-.046-.1-.1-.1a1.838,1.838,0,0,0-.746.03m22.746-12.285.072.014c.079-.206.161-.41.238-.617.026-.065.046-.146-.038-.179-.106-.043-.146.034-.162.125-.037.219-.072.439-.11.658m3.24,2.519-.134.014q.14.772.279,1.546c.038-.007.076-.014.115-.019-.087-.515-.172-1.028-.26-1.541m16.568,7.444c.194-.512.34-.951.527-1.369.138-.31.045-.441-.263-.475a6.906,6.906,0,0,1-1.637-.326.4.4,0,0,0-.506.19,2.175,2.175,0,0,0-.195,1.345.16.16,0,0,0,.091.123c.37.05.775.283,1.1.119.464-.232.669-.06.883.394m10.088-13.436a.962.962,0,0,0,.611-.362c.959-1.056,1.866-2.16,2.929-3.12.056-.05.144-.093.072-.2a.744.744,0,0,0-1.082-.116A42,42,0,0,0,134,411.717c-.05.076-.169.145-.118.245s.187.11.332.108m-15.1-2.238c.053-.024.085-.028.1-.045a28.275,28.275,0,0,1,4.18-5.233c.188-.184.2-.3-.1-.333-.944-.1-1.89-.2-2.837-.3-.264-.026-.413.162-.525.355a2.623,2.623,0,0,0-.211.544,23.3,23.3,0,0,0-.594,4.315,1.687,1.687,0,0,0-.011.695M63.627,425.138a3.842,3.842,0,0,0,1.537.869c.849.19,1.676.455,2.52.659a11.893,11.893,0,0,0,4.273.527,4.99,4.99,0,0,0,3.155-1.206,1.76,1.76,0,0,1,1.46-.731,1.041,1.041,0,0,0,.44-.125c.13-.054.372-.022.363-.2a.462.462,0,0,0-.418-.412,1.338,1.338,0,0,0-.5.035c-.45.108-.9.232-1.34.362a3.37,3.37,0,0,1-1.779.122,1.594,1.594,0,0,0-1.282.184,3.623,3.623,0,0,1-1.1.4,12.273,12.273,0,0,1-5.457-.134,9.042,9.042,0,0,0-1.87-.348m73.432-18.63a2.668,2.668,0,0,0-.922.272q-3.837,1.594-7.669,3.2a1.257,1.257,0,0,0-.3.145c-.126.1-.333.217-.268.376a.433.433,0,0,0,.473.188,6.335,6.335,0,0,1,3.419.654c.214.1.422.218.645.3.566.213.776.139,1.07-.382a4.61,4.61,0,0,1,.969-1.259,11.9,11.9,0,0,0,2.3-2.926,1.215,1.215,0,0,0,.287-.567m-18.469,8.21a3.637,3.637,0,0,0-2.666.705,1.476,1.476,0,0,1-.512.283,10.143,10.143,0,0,0-2.745,1.606c-.164.13-.345.237-.52.356-.084.058-.255.024-.246.177s.157.185.272.234q.678.28,1.358.558,1.865.762,3.732,1.523c.084.034.177.131.264.033a.269.269,0,0,0-.008-.316.408.408,0,0,0-.164-.183c-.375-.177-.372-.481-.3-.821a1.409,1.409,0,0,1,.827-1.091.327.327,0,0,0,.218-.482,2.4,2.4,0,0,1,.4-2.338.263.263,0,0,0,.088-.245m-42.534,8.952c-.309-.272-.581-.509-.85-.745a.4.4,0,0,0-.433-.062,10.638,10.638,0,0,1-1.393.3,1.72,1.72,0,0,1-1.445-.2,2.333,2.333,0,0,0-.9-.317,13.977,13.977,0,0,1-4.475-1.64,5.419,5.419,0,0,0-1.828-.714c-.317-.053-.431.034-.38.333.079.46-.149.681-.567.764-.385.077-.769.15-1.152.232-.123.026-.265.056-.286.206-.016.122.119.135.195.188a.96.96,0,0,1,.315,1.506c-.267.46-.227.567.294.68,1.4.3,2.795.584,4.207.806a6.859,6.859,0,0,0,4.9-.86,1.956,1.956,0,0,1,1.7-.332,1.246,1.246,0,0,1,.528.207.593.593,0,0,0,.669.088c.29-.133.571-.275.915-.441m53.935-7.8c-.03,0-.068-.02-.08-.009-.093.083-.188.167-.275.257a48.213,48.213,0,0,0-4.677,5.832c-.269.382-.3.619.066.925.191.161.464.363.356.663a28.361,28.361,0,0,1-1.164,2.837c-.077.157-.226.257-.375.133a2.731,2.731,0,0,0-1.755-.692c-.177,0-.32-.167-.448-.3a2.719,2.719,0,0,0-.389-.382.387.387,0,0,1-.153-.51c.139-.367.284-.73.436-1.091.177-.421.133-.577-.286-.761-1.832-.8-3.707-1.511-5.507-2.391a.53.53,0,0,0-.733.2c-.2.284-.427.554-.631.84-.357.505-.334.6.172.979a35.614,35.614,0,0,0,6.139,3.363c1.12.543,2.3.964,3.433,1.477.271.122.343.068.456-.164q2.663-5.435,5.331-10.865c.049-.1.175-.2.083-.339M65.484,431.5a13.238,13.238,0,0,0,4.569-.812,14.694,14.694,0,0,0,4.475-2.524c.561-.508,1.179-.949,1.745-1.45a1.576,1.576,0,0,1,1.24-.481,1.617,1.617,0,0,0,.816-.3c.133-.064.309-.112.21-.332a.342.342,0,0,0-.427-.242,5.213,5.213,0,0,0-2.456.986,6.419,6.419,0,0,1-4.3,1.531,14.494,14.494,0,0,1-4.009-.645,11.733,11.733,0,0,1-3.651-1.191c-.157-.1-.363-.316-.561-.127a.654.654,0,0,0-.1.676,4.328,4.328,0,0,1,.119.445.99.99,0,0,1-.527,1.135c-.681.333-.555.46-.306,1.049a1,1,0,0,0,.2.314.979.979,0,0,1,.232,1.156c-.164.387,0,.542.347.631a8.16,8.16,0,0,0,2.378.181M99.2,409.652c-.093.134-.014.288-.03.433-.009.1.081.256-.043.3-.165.061-.19-.13-.256-.221a15.585,15.585,0,0,0-1.393-1.9,2.476,2.476,0,0,1-.684-2.352c.046-.242.111-.647-.072-.691-.261-.064-.382.287-.468.54a20.725,20.725,0,0,0-.718,2.852,5.5,5.5,0,0,0,1.531,5.365c.3.278.575.576.884.839a6.744,6.744,0,0,0,2.51,1.408,1.046,1.046,0,0,0,1.051-.228,4.811,4.811,0,0,0,1.192-1.76,6.3,6.3,0,0,1,.588-1.3c.2-.259.175-.381-.126-.552-1.391-.792-2.926-1.387-3.916-2.753l-.05.008m36.116-3.281a12.386,12.386,0,0,0-2.9-.984c-1.843-.471-3.592-1.393-5.579-1.22a.156.156,0,0,1-.042,0c-.206-.028-.359-.112-.294-.353s-.058-.223-.219-.219a1.952,1.952,0,0,0-1.642.861c-.792,1.123-1.674,2.176-2.524,3.252a13.263,13.263,0,0,0-1.514,2.062c-.158.3-.12.425.215.44,1.091.05,2.181.118,3.273.135a1.615,1.615,0,0,0,1.16-.268,1.659,1.659,0,0,1,.727-.379,67.6,67.6,0,0,0,8.516-2.842,2.617,2.617,0,0,0,.825-.481m-10.958,15.21.1.032q.934-1.107,1.865-2.214,1.814-2.153,3.63-4.309c.076-.091.306-.21.015-.333a6.615,6.615,0,0,0-1.651-.6,31.392,31.392,0,0,0-4.279-.232c-1.561,0-3.072.448-4.623.582a.366.366,0,0,0-.225.1,3.742,3.742,0,0,0-.879,1.366,1.252,1.252,0,0,0,.29,1.14c.091-.16.035-.3.043-.433a1.8,1.8,0,0,1,.563-1.357c.148-.126.309-.259.527-.157.087.039.218.084.2.188-.035.2-.226.269-.393.339a.5.5,0,0,0-.3.746,1.471,1.471,0,0,1,.074.783,1.414,1.414,0,0,0-.011.576c.615-.179.539-.681.563-1.139.589.425.639.682.213,1.374-.194.317-.1.4.218.447a1.474,1.474,0,0,0,1.66-1.251,1.968,1.968,0,0,0-.806-1.994c-.08-.06-.271-.133-.135-.279.093-.1.237-.047.33.06a3.108,3.108,0,0,1,.948,2.265,1.629,1.629,0,0,1-2.176,1.48,1.663,1.663,0,0,0-1.7.3,1.1,1.1,0,0,0,.18,1.686,15.773,15.773,0,0,0,4.139,1.553c.351.045.5-.024.574-.341a5.211,5.211,0,0,0,.116-1.587,33.258,33.258,0,0,1-.03-4.831,1.142,1.142,0,0,1,.153-.6.318.318,0,0,1,.351-.173c.144.043.084.19.088.292.054.882.1,1.763.15,2.644q.108,1.944.214,3.887m-38.762-41.2.088.03-.027-.088A3.924,3.924,0,0,0,85.131,379a6.333,6.333,0,0,1-.647-1.5c-.023-.1-.1-.246.03-.3.145-.061.168.112.219.2.613,1.024,1.056,2.134,1.609,3.189a.43.43,0,0,1-.068.577c-.137.111-.1.195-.024.315.232.351.454.707.676,1.066.108.175.292.417.106.555s-.36-.1-.492-.268a9.946,9.946,0,0,1-.853-1.3c-.543-.982-1.089-1.962-1.621-2.949a.956.956,0,0,0-.512-.466c-.244-.1-.329-.011-.267.226a5.618,5.618,0,0,0,.4,1.151q.768,1.519,1.526,3.044c.145.288.288.578.413.875.035.085.127.225-.012.3-.11.057-.217-.034-.3-.1a.676.676,0,0,1-.139-.2,20.6,20.6,0,0,1-2.237-5.2.751.751,0,0,0-.209-.45c-.085-.068-.2-.163-.283-.152-.131.016-.169.172-.188.3a1.178,1.178,0,0,0,.007.292,6.535,6.535,0,0,0,.586,2.268,16.766,16.766,0,0,0,4.88,6.173c.043.032.1.062.068.161a.9.9,0,0,1-.89-.1,4.708,4.708,0,0,1-1.056-.892,20.777,20.777,0,0,1-3.534-5.2.644.644,0,0,0-.2-.313c-.525-.349-1.041-.711-1.575-1.045-.264-.165-.421-.051-.4.268a1.786,1.786,0,0,0,.053.29,8.712,8.712,0,0,0,2.879,4.917c.875.765,1.718,1.569,2.575,2.357a5.393,5.393,0,0,1,1.42,2.673.413.413,0,0,1,0,.207c-.022.079-.049.183-.108.217-.1.06-.181-.047-.245-.112a2.015,2.015,0,0,1-.366-.793c-.062-.169-.116-.257-.326-.175a1.581,1.581,0,0,1-1.445-.2,10.217,10.217,0,0,1-1.783-1.33c-.57-.538-1.158-1.058-1.744-1.582-.074-.066-.149-.213-.274-.122-.08.06-.031.187-.005.279a3.289,3.289,0,0,0,.153.479,8.794,8.794,0,0,0,1.036,1.775,16.238,16.238,0,0,0,2.386,2.483c.131.116.309.215.28.437a.7.7,0,0,0,.313.647c.1.083.209.157.089.306-.1.119-.2.194-.36.127s-.3-.12-.527-.213a7.715,7.715,0,0,0,1.76,1.74,1.062,1.062,0,0,1-1.182-.326c-.28-.316-.559-.631-.841-.944-.567-.632-1.14-1.263-1.767-1.959.011.142.007.194.018.242a4.775,4.775,0,0,0,2.05,3.017c.408.3.838.563,1.258.844.095.064.206.15.172.263-.043.139-.192.073-.3.065a3.433,3.433,0,0,1-1.469-.588,2.887,2.887,0,0,0-.749-.4c.012.116.012.185.027.252a2.262,2.262,0,0,0,1.488,1.64c.213.092.539.227.487.448s-.39.2-.63.171c-.066-.008-.146-.039-.191.031-.06.1.034.149.085.211a2.161,2.161,0,0,0,.562.432c.106.07.249.2.168.34a.3.3,0,0,1-.382.091c-.169-.065-.325-.162-.5-.225-.131-.05-.256-.246-.4-.114a.566.566,0,0,0-.121.475.981.981,0,0,0,.245.524c.3.375.582.757.879,1.129a.728.728,0,0,1,.118.734c-.658-.175-.757-.89-1.213-1.266a.6.6,0,0,0,.137.574c.188.264.38.521.58.776a.467.467,0,0,1,.131.379,5.538,5.538,0,0,0,1.093,3.956,2.2,2.2,0,0,1,.227.4.319.319,0,0,1-.149.366c-.138.085-.176-.091-.234-.169-.255-.34-.5-.688-.806-1.12a5.336,5.336,0,0,0,1.324,4.017c-.645.1-.775-.47-1.114-.741a1.3,1.3,0,0,0-.07.723,5.692,5.692,0,0,0,.808,2.194c.057.1.222.192.1.325-.334.355-.142.669.051.987.7,1.15,1.43,2.282,2.225,3.367a44.585,44.585,0,0,1,3.186,4.644c.1.19.225.364.031.577-.29-.185-.347-.546-.57-.765a25.048,25.048,0,0,0-3.45-3.132,6.5,6.5,0,0,0-2.165-.795c.046.164.157.165.241.2.325.135.645.276.971.4.187.072.3.213.252.382s-.252.179-.4.149a4.726,4.726,0,0,1-.761-.229,3.418,3.418,0,0,0-2.3-.2c-.844.256-1.694.49-2.54.742a10.013,10.013,0,0,0-1.655.608.693.693,0,0,1,.4-.551c.2-.127.413-.237.626-.345.181-.092.372-.171.558-.256a22.243,22.243,0,0,1-7.864.195.949.949,0,0,0,.719.783,2.165,2.165,0,0,1,.645.3,3.7,3.7,0,0,0,3.529.4c.133-.054.321-.2.428.053s-.081.34-.249.4a3.973,3.973,0,0,1-3.224.009.587.587,0,0,0-.506-.077,4.173,4.173,0,0,0,3.526,1.133,1.523,1.523,0,0,1-1.439.494c-.352-.089-.7-.191-1.058-.264-.127-.027-.291-.179-.385-.037-.1.16-.008.352.1.505a.556.556,0,0,0,.481.211c.631.016,1.261.033,1.892.057.229.008.6-.045.608.2,0,.267-.362.288-.617.292-.4.009-.8,0-1.2,0,.956.965,2.036.316,3.059.318.007.034.016.068.022.1l-1.565.806A1.773,1.773,0,0,0,79,422.123a5.185,5.185,0,0,1,.846-.463.229.229,0,0,1,.3.062c.07.116-.018.222-.1.291a2.078,2.078,0,0,1-.353.223c-.352.192-.7.378-1.1.589a3.622,3.622,0,0,0,2.571.406c.842-.126,1.774-.015,2.313-.978a.657.657,0,0,1-.268.9,4.807,4.807,0,0,1-2.269.928c-.357.023-.509.2-.357.567.085.2.106.4-.168.463-.222.054-.2.156-.119.33a2.5,2.5,0,0,1,.176,1.317c-.043.427.056.539.479.527.462-.014.923-.049,1.384-.069.26-.012.416.1.353.378-.051.229.051.306.249.328.418.046.282.234.1.417a1.293,1.293,0,0,1-.678.31,3.793,3.793,0,0,1-.968,0,1.266,1.266,0,0,0,.394.578,5.036,5.036,0,0,0,3.779,1.209,20.417,20.417,0,0,1,3.512-.288,4.3,4.3,0,0,0,2-.58c.108-.046.207-.144.2-.25-.016-.156-.18-.083-.276-.107-.264-.068-.567.013-.789-.219a.64.64,0,0,0-.773-.119.779.779,0,0,1-.765.009,10.257,10.257,0,0,0,2.911-1.982,1.188,1.188,0,0,1-.546,1.12c-.218.153-.447.293-.662.446-.164.114-.167.2.042.276a1.257,1.257,0,0,0,.9-.068,5.125,5.125,0,0,0,2.387-1.986c.187-.279.385-.55.59-.816.085-.11.213-.23.352-.1.114.107.074.259-.019.382-.144.191-.284.382-.432.57-.4.513-.8,1.026-1.251,1.6a1.029,1.029,0,0,0,.249-.037A16.858,16.858,0,0,0,96.705,426a3.579,3.579,0,0,0,1.068-2.879,7.279,7.279,0,0,1-.678,1.32c-.4.571-.777.925-1.059.949A6.131,6.131,0,0,0,97.18,421.7l-2.045,1.775c-.091-.232.139-.443-.011-.534-.353-.213-.076-.321.042-.45A4.441,4.441,0,0,0,96.231,421c.038-.11.135-.252,0-.344s-.223.069-.307.146c-.47.427-.933.861-1.4,1.294a4.807,4.807,0,0,1,1.915-2.432c.238-.157.548-.263.2-.615-.05-.054-.022-.188-.028-.286-.019-.317.083-.4.379-.233a1.02,1.02,0,0,0,.68.126.436.436,0,0,1,.418.681,1.252,1.252,0,0,1-.477.463,3.306,3.306,0,0,0-.712.506c.374.139.727.274,1.081.4.1.037.238.032.269.164.092.371.336.345.622.271a1.522,1.522,0,0,1,.5-.057c.179.016.417-.039.5.211a.716.716,0,0,1-.081.754c-.1.116-.21.226-.306.348-.047.06-.152.129-.081.21a.363.363,0,0,0,.226.076.991.991,0,0,0,.738-.347c.255-.221.513-.421.844-.122a.17.17,0,0,0,.2.023q.654-.376,1.307-.757a5.424,5.424,0,0,0-1.433.213c-.114.018-.272.131-.328-.035s.116-.226.245-.283a.866.866,0,0,1,.158-.05,5.356,5.356,0,0,0,2.367-1.381c.67-.624.9-1.552,1.571-2.165.043-.039.043-.13.057-.2.11-.62.222-1.242.325-1.863.037-.207.057-.5-.156-.546-.183-.041-.164.271-.244.421-.122.227-.076.6-.376.661-.372.074-.483.34-.635.6a2.1,2.1,0,0,1-.41.628c-.107-.577.227-1,.32-1.472a6.892,6.892,0,0,1-1.992,1.762l-.1-.1q.542-.725,1.086-1.449a.12.12,0,0,0-.18.009,4.2,4.2,0,0,1-2.231,1.148A2.206,2.206,0,0,1,99,417.13a9.888,9.888,0,0,0-1.46-.83c-.042-.024-.085-.064-.122,0,0,.011.038.05.06.076.107.148.2.3.317.441.45.566.451.565.007,1.15-.321.422-.376.429-.753.057a3.265,3.265,0,0,1-.261-.328,31.835,31.835,0,0,0-2.806-3.665,1.184,1.184,0,0,1-.168-.288,6.567,6.567,0,0,1-.775-3.848,5.425,5.425,0,0,1,1.024-3.011c.047-.064.064-.181.165-.164s.138.137.141.23a1.1,1.1,0,0,1-.053.283c-.152.612-.3,1.224-.46,1.835-.039.156-.062.271.161.279.359.014.429.25.4.555-.014.177-.087.372.119.539.031-.341.064-.647.092-.955.1-1.158.168-2.319.37-3.468a10.775,10.775,0,0,1,2.533-4.96,15.7,15.7,0,0,0,1.988-2.808,4.579,4.579,0,0,0,.413-4.151.876.876,0,0,1-.045-.288,6.266,6.266,0,0,0-.719-2.528,15.808,15.808,0,0,0-2.459-3.342c-2.057-2.277-4.29-4.4-6.12-6.876a24.243,24.243,0,0,1-4.374-7.89.588.588,0,0,0-.06-.156c-.066-.118-.092-.328-.232-.318a.458.458,0,0,0-.387.345,2.821,2.821,0,0,0-.114,1.244,15.616,15.616,0,0,0,1.4,4.3,25.962,25.962,0,0,0,1.984,3.167c.051.074.162.157.081.255s-.175-.009-.255-.051a1.886,1.886,0,0,1-.508-.436,10.724,10.724,0,0,1-2.321-3.866c-.412-1.194-1.441-1.844-2.161-2.839a2.837,2.837,0,0,0,.207,1.665,15.452,15.452,0,0,0,1.74,3.9m10.047,47.167-.015.024,0-.034c.054,0,.137.037.091-.077.1.091.138,0,.19-.064a13.488,13.488,0,0,0,2.462-2.4l-.089-.084q-1.217,1.206-2.439,2.412l-.115.139c-.028.026-.06.053-.088.08M134.854,412.2c.034.141.122.165.192.2,1.674.816,2.418,2.34,3.026,3.969a1.243,1.243,0,0,1-.642,1.557.766.766,0,0,1-.969-.3c-.406-.521-.784-.477-1.341-.2a18.27,18.27,0,0,0-2.894,1.424,3.746,3.746,0,0,0-1.412,1.724,20.872,20.872,0,0,1-1.1,1.982,56.085,56.085,0,0,1-3.449,5.909,7.825,7.825,0,0,1-4.357,3.516,10.094,10.094,0,0,1-7.688-.563c-.347-.183-.688-.375-1.045-.54a9.909,9.909,0,0,1-4.382-4.673,34.947,34.947,0,0,1-2.375-5.7c-.214-.647-.306-.669-.89-.347a7.273,7.273,0,0,0-1.185.871,12.2,12.2,0,0,1-3.458,2.127,2.723,2.723,0,0,0-1.3,1.079c-.386.585-.8,1.15-1.215,1.716a8.152,8.152,0,0,1-3.32,2.705c-1.2.535-2.414,1.048-3.619,1.579a6.683,6.683,0,0,1-2.611.58c-1.14.015-2.254.267-3.391.294a6.3,6.3,0,0,1-4.376-1.545c-.627-.536-1.216-1.121-1.883-1.611a2.676,2.676,0,0,0-3.5.127c-1.053.88-2.13,1.736-3.213,2.581a6.213,6.213,0,0,1-3.191,1.4c-1.154.122-2.276.483-3.441.546a11.942,11.942,0,0,1-3.362-.462.641.641,0,0,1-.519-.831,2.493,2.493,0,0,0-.356-2,1.027,1.027,0,0,1,.385-1.43.892.892,0,0,0,.448-1.028,2.117,2.117,0,0,1,.153-1.668c.1-.148-.053-.183-.144-.236-.715-.414-.806-.741-.374-1.466a1.066,1.066,0,0,0-.08-1.353c-.4-.5-.21-.969.427-1.106a4.805,4.805,0,0,1,.668-.085.537.537,0,0,0,.566-.585c.039-.783.214-.913,1-.8a4.586,4.586,0,0,1,1.936.781,15.968,15.968,0,0,0,6.142,2.139,4.391,4.391,0,0,0,1.667-.134c.192-.034.171-.139.131-.272a9.163,9.163,0,0,0-1.675-3.8,12.583,12.583,0,0,1-1.823-3.106.423.423,0,0,1,.406.047,4.637,4.637,0,0,0,2.608.811,13.754,13.754,0,0,0,6.44-.875c1.082-.379,2.149-.807,3.22-1.225.489-.19.582-.413.432-.925-.125-.416-.259-.83-.374-1.248a4.728,4.728,0,0,1-.279-2.38,5.168,5.168,0,0,0-.142-1.836,3.115,3.115,0,0,1,.173-1.652,3.636,3.636,0,0,0,.15-2.311,1.926,1.926,0,0,1,0-1.156,1.377,1.377,0,0,0-.108-1.024,8.6,8.6,0,0,1-.751-4.589,2.056,2.056,0,0,0-.229-1.227,5.913,5.913,0,0,1-.529-2.4,2.425,2.425,0,0,0-.211-.888,4.548,4.548,0,0,1-.5-2.688.839.839,0,0,0-.188-.582,9.328,9.328,0,0,1-1.387-3.8c-.066-.566.081-.68.634-.536a1.636,1.636,0,0,1,.726.483q1.119,1.113,2.237,2.225a.866.866,0,0,0,.4.3c.1-.232-.076-.351-.177-.482-.54-.7-1.078-1.4-1.641-2.081a14.727,14.727,0,0,1-2.31-4.317,2.611,2.611,0,0,1-.144-1.529c.2-.86.857-1.075,1.522-.5l.424.376c0-.353.005-.623,0-.892a2.752,2.752,0,0,1,.4-1.564c.108-.171.169-.209.341-.081.339.249.7.471,1.049.7.079.051.167.146.263.081.129-.088.026-.2-.008-.3a16.4,16.4,0,0,1-.558-1.76,2.606,2.606,0,0,1,.068-1.613c.2-.455.364-.489.769-.207a2.261,2.261,0,0,1,.634.72l.363.607a4.782,4.782,0,0,0,.028-1.3,3,3,0,0,1,.528-1.866.815.815,0,0,1,1.427.213,1.735,1.735,0,0,1,.077.5,5.114,5.114,0,0,0,.552,2.309,32.52,32.52,0,0,0,5.841,8.785c1.863,2.019,3.821,3.954,5.5,6.141a3.229,3.229,0,0,1,.352.471c1.2,2.449,2.324,4.916,1.355,7.748-.1.292-.034.439.3.339.244-.07.485-.142.731-.2a2.307,2.307,0,0,1,1.779.269,2.11,2.11,0,0,0,1.235.344.437.437,0,0,1,.207.022,17.9,17.9,0,0,1,2.5,1.179,7.752,7.752,0,0,1,3.1,4.489,1.437,1.437,0,0,1,.023.707c-.018.079,0,.188-.114.195s-.114-.095-.135-.177a14.6,14.6,0,0,0-.586-1.618,1.18,1.18,0,0,0-.883-.7c-.069-.018-.142-.058-.2,0-.5.485-1.113.268-1.682.249a.779.779,0,0,0-.684.322c-.412.44-.562,1.047-1.021,1.445a.872.872,0,0,0-.213.582.735.735,0,0,1-.234.52.642.642,0,0,1-.142-.6,4.288,4.288,0,0,1,1.219-2.486c.291-.3.6-.586.909-.873a.727.727,0,0,1,.726-.221c.237.064.471.026.562-.23.106-.3-.118-.439-.349-.527-.681-.257-1.351-.548-2.05-.742a3.274,3.274,0,0,0-3.455,1.261c-.043.062-.069.163-.2.137-.116-.213-.014-.383.115-.555a7.213,7.213,0,0,1,1.438-1.525c.083-.062.227-.116.177-.251-.061-.165-.215-.092-.328-.065a3.647,3.647,0,0,0-1.6,1.045c-.084.077-.145.294-.325.135-.157-.135-.026-.25.053-.36.226-.321.456-.639.684-.96.054-.076.141-.145.005-.237-.2-.141-.806-.1-.9.11a5.416,5.416,0,0,1-.88,1.11,9.536,9.536,0,0,0-.663,1.071c-.214.385-.154.485.274.538.474.06.535.208.246.626a4.261,4.261,0,0,0-.77,1.147c.222-.144.462-.428.658-.4.313.043.458-.232.746-.234a2.479,2.479,0,0,1-.577,1.158,1.948,1.948,0,0,0-.452,1.024c-.009.2,0,.345.264.192.242-.137.509-.234.765-.349a2.393,2.393,0,0,1,2.468.255,4.063,4.063,0,0,1,1.053,1.133,1.1,1.1,0,0,1,.144.926,1.437,1.437,0,0,0,1.1,1.873c.452.135.907.263,1.374.4-.107.183-.249.152-.386.125-.095-.019-.184-.069-.279-.085a3.794,3.794,0,0,1-3.074-2.658.782.782,0,0,0-.073-.152c-.2-.332-.245-.784-.746-.888a2.181,2.181,0,0,0-1.892.237c-.145.111-.3.214-.437.328a1.685,1.685,0,0,0-.529,2.206,4.715,4.715,0,0,0,2.1,2.268,32.7,32.7,0,0,1,4.011,2.444,6.542,6.542,0,0,1,2.389,3.592,35.87,35.87,0,0,1,1.017,4.937,7.287,7.287,0,0,0,1.076,2.8c.089.129.2.283.041.41-.2.157-.264-.08-.345-.179a10.627,10.627,0,0,1-1.146-2c-.069-.133-.093-.294-.263-.4a.557.557,0,0,0,.039.473c.249.714.528,1.419.743,2.143a11.387,11.387,0,0,0,2.524,4.034.682.682,0,0,0,.119.115c3.087,2.287,6.41,3.5,10.266,2.236a7.329,7.329,0,0,0,3.326-2.344,16.269,16.269,0,0,0,2.087-3.3c1.086-2.187,2.376-4.257,3.614-6.36a4.556,4.556,0,0,1,1.863-1.592,8.458,8.458,0,0,0,.783-.486.345.345,0,0,0,.014-.621c-.478-.387-.948-.787-1.445-1.154a.64.64,0,0,0-1.013.164,4.509,4.509,0,0,0-.673,1.208,5.706,5.706,0,0,1-.705,1.381,53.338,53.338,0,0,0-4.207,8.128c-.2.435-.389.869-.605,1.294a.614.614,0,0,1-.929.347,76.053,76.053,0,0,1-10.547-5.275c-.459-.3-.494-.45-.175-.911.341-.5.677-1,1.032-1.487.209-.288.183-.475-.171-.594-.971-.328-1.9-.75-2.841-1.151-.5-.213-.57-.385-.241-.8a4.036,4.036,0,0,1,.582-.605c.188-.16.179-.288.074-.5a5.232,5.232,0,0,0-1.309-1.619,24.806,24.806,0,0,0-3.617-2.651,18.658,18.658,0,0,1-3.158-2.888c-.131-.125-.2-.33-.076-.45s.329-.024.441.106a13.929,13.929,0,0,0,5.608,3.5,14.106,14.106,0,0,0,3.581,1.178,17.544,17.544,0,0,0,5.858-.154,37.757,37.757,0,0,1,4.678-.487c.81-.072,1.614-.2,2.424-.26a11.815,11.815,0,0,1,8.315,2.421q1.117.861,2.246,1.7c.158.119.367.337.543.181.156-.135.126-.409.027-.634-.3-.692-.567-1.406-.907-2.078a3.8,3.8,0,0,0-2.623-1.928c-.677-.173-1.3-.493-2-.622-2.429-.444-4.885-.678-7.34-.91-2.972-.28-5.95-.531-8.919-.839a29.949,29.949,0,0,1-3.145-.548,3.053,3.053,0,0,1-1.906-1.215,7.413,7.413,0,0,0-.754-.9c-.255-.251-.095-.5-.054-.745.019-.126.133-.073.2-.031a1.511,1.511,0,0,1,.37.275,17.827,17.827,0,0,0,2.352,1.894,1.929,1.929,0,0,0,.861.315c1.28.313,2.579.529,3.878.753.707.12.764.043.883-.672.332-1.977.68-3.951,1.022-5.927.047-.271.129-.5.481-.435,1.164.2,2.349.145,3.521.246.336.028.672.045,1.009.058a1.081,1.081,0,0,0,.727-.153,1.68,1.68,0,0,1,1.2-.238,27.944,27.944,0,0,1,5.388.871c1.672.353,3.339.726,5.009,1.086a3.962,3.962,0,0,0,.922.03.679.679,0,0,1,.762.854,2.627,2.627,0,0,1-.589,1.193c-.37.515-.328.624.261.8.728.222.906.5.255,1.232a12.853,12.853,0,0,1-1.3,1.127,4.207,4.207,0,0,0-.838.936c-.317.5-.613,1.01-1.227,1.175" transform="translate(3.052)" fill="#4d1747"/>
    <path id="Path_929" data-name="Path 929" d="M56.323,401.089c.161-.077.238.034.329.083q2.066,1.127,4.128,2.263a1.341,1.341,0,0,0,1.03.215,1.182,1.182,0,0,1,1.016.31,18.407,18.407,0,0,0,6.354,2.973,13.9,13.9,0,0,1,3.7,1.464c.188.122.462.213.34.489-.133.3-.4.162-.623.081-1.487-.543-2.98-1.067-4.455-1.64a56.091,56.091,0,0,1-9.6-4.586c-.653-.409-1.281-.858-1.917-1.293a.606.606,0,0,1-.3-.359" transform="translate(1.242 10.524)" fill="#4d1747"/>
    <path id="Path_930" data-name="Path 930" d="M63.708,409.234a1.789,1.789,0,0,1-.337-.1c-1.489-.715-3.041-1.311-4.468-2.142a17.43,17.43,0,0,1-5.621-5.162,8.046,8.046,0,0,1-.4-.738c-.039-.07-.125-.134-.012-.206.093-.06.154.007.211.072a1.272,1.272,0,0,1,.137.16c1.967,2.937,4.9,4.665,7.9,6.307a18.842,18.842,0,0,0,2.268,1c.183.072.366.141.546.218s.441.145.383.356c-.054.195-.318.248-.607.241" transform="translate(0 10.453)" fill="#4d1747"/>
    <path id="Path_931" data-name="Path 931" d="M103.055,402.891a16.629,16.629,0,0,1-5.66-.97,2.812,2.812,0,0,1-.7-.371c-.081-.062-.253-.091-.209-.219.06-.169.229-.119.366-.089.464.1.928.213,1.392.314.67.148,1.342.288,2.012.435a20.687,20.687,0,0,0,6.105.042c.571-.045,1.143-.1,1.716-.149.169-.015.386-.043.448.13.072.2-.184.237-.3.34a.784.784,0,0,1-.5.2c-1.622.084-3.242.194-4.673.336" transform="translate(15.458 10.576)" fill="#4d1747"/>
    <path id="Path_932" data-name="Path 932" d="M61.952,410.3c-.139-.053-.3-.1-.452-.171q-1.921-.847-3.839-1.7a9.529,9.529,0,0,1-3.155-2.257c-.466-.505-.945-1-1.414-1.5-.084-.088-.2-.2-.077-.319.11-.1.2.037.291.087.225.133.315.391.5.563a15.12,15.12,0,0,0,3.265,2.479,43.928,43.928,0,0,0,4.861,2.273.9.9,0,0,1,.19.091c.106.072.223.169.177.3s-.2.131-.345.148" transform="translate(0.051 11.677)" fill="#4d1747"/>
    <path id="Path_933" data-name="Path 933" d="M95.226,397.633a1.021,1.021,0,0,0,.058-1.346c-.222-.39-.181-.486.218-.711.362-.2.429.088.55.3a1.02,1.02,0,0,1,.116.609,4.45,4.45,0,0,1-.827,2.211,1.168,1.168,0,0,1-.31.276.629.629,0,0,1-.712.033.605.605,0,0,1-.249-.664,3.173,3.173,0,0,1,.571-1.248c.153-.241.322,0,.418.118a1.444,1.444,0,0,1,.167.425" transform="translate(14.601 8.557)" fill="#4d1747"/>
    <path id="Path_934" data-name="Path 934" d="M98.189,412.246c.551.628,1.223,1.055,1.748,1.63a5.2,5.2,0,0,0,2.911,1.55c.2.043.531.018.474.334s-.333.366-.635.311a4.532,4.532,0,0,1-2.229-1q-1.087-.928-2.126-1.909a.69.69,0,0,1-.144-.914" transform="translate(16.025 14.483)" fill="#4d1747"/>
    <path id="Path_935" data-name="Path 935" d="M96.842,396.976c.351,1.243-.481,2.068-1.056,2.982a.7.7,0,0,1-.349.221c-.141.065-.279.084-.38-.045s-.042-.269.053-.382c.3-.353.586-.716.9-1.051a1.205,1.205,0,0,0,.337-1.071c-.072-.555-.095-1.116-.134-1.675-.014-.2.005-.487.188-.5.229-.019.351.23.367.477.023.349.047.7.07,1.048" transform="translate(14.936 8.537)" fill="#4d1747"/>
    <path id="Path_936" data-name="Path 936" d="M90.27,399.064a1.5,1.5,0,0,1,.67-1.886.657.657,0,0,1,.487-.052c.129.049.283.114.292.263.007.131-.127.218-.249.249a1.249,1.249,0,0,0-.93,1.025.825.825,0,0,1-.271.4" transform="translate(13.22 9.12)" fill="#4d1747"/>
    <path id="Path_937" data-name="Path 937" d="M90.981,392.223a6.957,6.957,0,0,1-.934,3.466,20.338,20.338,0,0,1-1.365,2.509,9.312,9.312,0,0,0-1.424,3.607c-.041.261-.131.714-.353.669-.257-.05-.135-.482-.115-.743.066-.858.451-1.656.546-2.5a9.684,9.684,0,0,1,1.244-3.756,4.248,4.248,0,0,0,.3-.741,2.149,2.149,0,0,0-.482-2.334c-.085-.089-.211-.181-.157-.318s.191-.088.3-.066c.188.038.167-.095.173-.2a1.962,1.962,0,0,0-.2-.937c-.119-.268-.252-.531-.38-.8-.11-.225-.119-.417.19-.459.214-.03.236-.137.192-.32a4.978,4.978,0,0,0-1.158-2.521c-.085-.085-.173-.184-.127-.29.152-.347-.091-.542-.267-.761-1.515-1.882-3.286-3.525-4.948-5.269-.135-.142-.271-.284-.4-.435a.227.227,0,0,1-.051-.269c.072-.1.2-.046.263.008.765.666,1.836.857,2.5,1.7a14.843,14.843,0,0,0,1.984,1.81,13.636,13.636,0,0,1,4.112,5.794,9.707,9.707,0,0,1,.42,1.32,12.343,12.343,0,0,1,.139,1.831" transform="translate(10.167 2.961)" fill="#4d1747"/>
    <path id="Path_938" data-name="Path 938" d="M84.845,388.868l.849,1.619a4.961,4.961,0,0,1-1.653-2.319c.3.081.4.336.665.376a18.365,18.365,0,0,1-1.132-2.592,2.16,2.16,0,0,0-.233,1.97,17.79,17.79,0,0,0,2.076,4.207,6.362,6.362,0,0,1,.359.569c.069.123.135.3.019.389-.135.1-.3-.005-.4-.121a1.925,1.925,0,0,1-.306-.4c-.693-1.3-1.405-2.585-2.054-3.9a4.242,4.242,0,0,1-.05-3.317c.054-.162.141-.237.3-.209.286.047.356-.106.372-.355.032-.475.083-.949.134-1.423.016-.152.056-.368.215-.359.184.009.217.226.211.4a2.276,2.276,0,0,1-.047.417,5.51,5.51,0,0,0,.749,4.034,11.228,11.228,0,0,0,1.274,1.771,1.081,1.081,0,0,1,.19.223c.069.145.334.276.135.452s-.321-.087-.428-.2c-.4-.412-.773-.845-1.156-1.269-.016-.039-.032-.08-.047-.119-.049-.049-.074-.186-.168-.091-.074.073.035.137.083.2a.144.144,0,0,0,.045.05" transform="translate(10.568 4.129)" fill="#4d1747"/>
    <path id="Path_939" data-name="Path 939" d="M80.763,406.9a6.255,6.255,0,0,0-1.563-.715,4.964,4.964,0,0,0-2.892.039c-.172.053-.458.164-.523-.053-.079-.257.251-.241.406-.3a5.434,5.434,0,0,1,4.095.123,7.86,7.86,0,0,1,1.349.68c.183.111.31.249.2.482-.119.261-.291.2-.479.081-.118-.076-.2-.081-.213.1-.016.31-.241.314-.458.26-.9-.226-1.789-.463-2.684-.7-.076-.02-.2-.022-.181-.129.009-.065.1-.122.162-.172a.416.416,0,0,1,.363-.031c.647.119,1.294.24,1.943.353a.528.528,0,0,0,.47-.023" transform="translate(8.128 12.101)" fill="#4d1747"/>
    <path id="Path_940" data-name="Path 940" d="M81.191,390a8.825,8.825,0,0,0-.21,1.919,9.493,9.493,0,0,0,1.485,4.962,1.375,1.375,0,0,1,.146.255c.051.144.3.3.133.417-.207.144-.432-.012-.558-.219-.21-.347-.424-.693-.6-1.059a9.865,9.865,0,0,1-1-6.35c.041-.2.073-.409.348-.371.2.027.275.172.25.447" transform="translate(9.774 6.446)" fill="#4d1747"/>
    <path id="Path_941" data-name="Path 941" d="M81.943,388.74a7.142,7.142,0,0,1,.2-1.835c.049-.229.177-.46.386-.418s.238.315.2.538c-.076.47-.179.937-.225,1.41a6.669,6.669,0,0,0,1.911,5.323c.135.149.406.328.236.512-.21.225-.387-.065-.544-.2a7.126,7.126,0,0,1-2.169-5.324" transform="translate(10.311 5.362)" fill="#4d1747"/>
    <path id="Path_942" data-name="Path 942" d="M74.755,406.031a.715.715,0,0,1,.468-.447,8.714,8.714,0,0,1,6.845-.066,1.037,1.037,0,0,1,.153.07c.16.1.336.271.28.426-.07.2-.32.19-.512.131-.55-.164-1.1-.341-1.642-.51a4.106,4.106,0,0,0-1.493-.175,11.706,11.706,0,0,0-3.959.605c-.028.012-.076-.018-.139-.035" transform="translate(7.768 11.875)" fill="#4d1747"/>
    <path id="Path_943" data-name="Path 943" d="M80.234,392.715a12.651,12.651,0,0,0,.432,3.418,6.883,6.883,0,0,0,1.1,2.206,1.179,1.179,0,0,1,.183.279c.049.137.142.33.007.418s-.24-.093-.33-.2a7.353,7.353,0,0,1-1.8-4.388c-.08-.922-.084-1.846-.092-2.769,0-.187,0-.429.213-.441.244-.014.279.24.284.437.009.406,0,.812,0,1.037" transform="translate(9.53 7.046)" fill="#4d1747"/>
    <path id="Path_944" data-name="Path 944" d="M81.848,388.7a6.328,6.328,0,0,0-.046,2.636,6.972,6.972,0,0,0,1.493,3.2c.107.131.315.321.15.456s-.367-.06-.483-.209a7.573,7.573,0,0,1-1.781-5.779,2.625,2.625,0,0,1,.11-.447c.057-.188.183-.359.383-.315s.152.261.173.456" transform="translate(10.023 5.984)" fill="#4d1747"/>
    <path id="Path_945" data-name="Path 945" d="M76.647,383.073c.226.038.3.226.406.356A25.572,25.572,0,0,0,79.342,386a6.781,6.781,0,0,0,1.843,1.224c.1.042.246.056.238.2-.009.173-.184.165-.292.173a1.41,1.41,0,0,1-.991-.385,19.107,19.107,0,0,1-3.354-3.625.641.641,0,0,1-.139-.509" transform="translate(8.434 4.155)" fill="#4d1747"/>
    <path id="Path_946" data-name="Path 946" d="M87.151,390.76a.6.6,0,0,1-.115.372c-.493.833-.848,1.733-1.278,2.6-.026.049-.049.1-.072.152-.085.18-.2.409-.414.3-.154-.079-.107-.33-.008-.5.559-.941.952-1.961,1.424-2.944.068-.142.144-.34.352-.3.123.024.1.181.111.315" transform="translate(11.456 6.762)" fill="#4d1747"/>
    <path id="Path_947" data-name="Path 947" d="M86.324,387.744c-.038.134-.108.169-.209.07a2.444,2.444,0,0,1-.283-.309,12.083,12.083,0,0,1-1.334-2.8.321.321,0,0,1,.129-.435c.145-.06.234.127.287.248a25.886,25.886,0,0,0,1.368,3.114.5.5,0,0,1,.042.111" transform="translate(11.206 4.575)" fill="#4d1747"/>
    <path id="Path_948" data-name="Path 948" d="M81.417,400.467c0-.064-.02-.165.087-.185a.306.306,0,0,1,.184.069.33.33,0,0,1,.156.237,2.6,2.6,0,0,0,1.029,1.537c.176.149.519.311.325.575-.24.328-.506.018-.714-.139a2.933,2.933,0,0,1-1.067-2.093" transform="translate(10.125 10.246)" fill="#4d1747"/>
    <path id="Path_949" data-name="Path 949" d="M84.18,402.721a2.038,2.038,0,0,1-.219-.083,2.617,2.617,0,0,1-1.089-2.03c.018-.18.092-.363.276-.374.24-.012.164.217.169.349a1.775,1.775,0,0,0,.524,1.2c.165.171.353.318.525.482.088.085.233.177.2.3-.047.153-.238.106-.383.154" transform="translate(10.64 10.231)" fill="#4d1747"/>
    <path id="Path_950" data-name="Path 950" d="M83.254,412.2c.027,1.044-1.833,2.451-3.071,2.338a8.538,8.538,0,0,0,3.071-2.338" transform="translate(9.689 14.467)" fill="#4d1747"/>
    <path id="Path_951" data-name="Path 951" d="M81.71,399.812a.693.693,0,0,1-.673-.493c-.134-.4-.241-.8-.364-1.2-.038-.119-.05-.222.085-.28.16-.066.19.069.232.165a1.564,1.564,0,0,1,.108.317,1.115,1.115,0,0,0,.764.867c.161.06.4.116.345.334a.458.458,0,0,1-.5.291" transform="translate(9.854 9.376)" fill="#4d1747"/>
    <path id="Path_952" data-name="Path 952" d="M83.656,397.967a4.045,4.045,0,0,0,.607,1.293,1.634,1.634,0,0,0,.5.5.24.24,0,0,1,.091.359.271.271,0,0,1-.348.149,1.837,1.837,0,0,1-.846-2.3" transform="translate(10.869 9.428)" fill="#4d1747"/>
    <path id="Path_953" data-name="Path 953" d="M82.284,398.031c.119.033.148.149.184.249.119.311.222.63.339.945a2.167,2.167,0,0,0,.529.743c.112.115.284.227.053.394a.287.287,0,0,1-.458-.1c-.135-.213-.259-.429-.375-.654-.18-.344-.362-.691-.521-1.047-.1-.229.051-.538.249-.529" transform="translate(10.333 9.45)" fill="#4d1747"/>
    <path id="Path_954" data-name="Path 954" d="M81.316,412.217c.1.011.213.016.225.141a.381.381,0,0,1-.158.367,5.168,5.168,0,0,1-1.225.636c-.248.092-.5.175-.75.267-.07.026-.141.043-.188-.024a.131.131,0,0,1,.049-.183,14.69,14.69,0,0,1,1.966-1.194.231.231,0,0,1,.083-.009" transform="translate(9.34 14.473)" fill="#4d1747"/>
    <path id="Path_955" data-name="Path 955" d="M76.553,412.484a.977.977,0,0,1-.98-.928c.008-.116.034-.245.145-.28a.215.215,0,0,1,.257.167c.116.38.409.45.754.47.237.014.613-.066.638.241.027.349-.379.213-.59.3a.837.837,0,0,1-.223.033" transform="translate(8.057 14.137)" fill="#4d1747"/>
    <path id="Path_956" data-name="Path 956" d="M84.059,395.542a.948.948,0,0,1,.007.528,1.228,1.228,0,0,0,.116.888,1.407,1.407,0,0,1,.066.153c.092.226.175.566-.038.638-.261.087-.33-.257-.394-.481-.08-.282-.152-.565-.218-.849a.675.675,0,0,1,.46-.877" transform="translate(10.887 8.569)" fill="#4d1747"/>
    <path id="Path_957" data-name="Path 957" d="M88.024,409.146a3.326,3.326,0,0,1-1.6,2.175c.594-.68.842-1.614,1.6-2.175" transform="translate(11.899 13.386)" fill="#4d1747"/>
    <path id="Path_958" data-name="Path 958" d="M84.877,392.647a.152.152,0,0,1-.108-.223c.183-.467.376-.93.577-1.389a.191.191,0,0,1,.248-.1.206.206,0,0,1,.148.229,2.877,2.877,0,0,1-.791,1.445.314.314,0,0,1-.073.042" transform="translate(11.308 6.932)" fill="#4d1747"/>
    <path id="Path_959" data-name="Path 959" d="M105.267,405.96v-1.779a1.192,1.192,0,0,1,0,1.779" transform="translate(18.57 11.628)" fill="#4d1747"/>
    <path id="Path_960" data-name="Path 960" d="M65.526,414.693a11.357,11.357,0,0,0,4.078-.631,2.12,2.12,0,0,1,.317-.106c.217-.037.51-.227.607.106a.513.513,0,0,1-.431.623c-.5.131-1.011.211-1.515.322-1.235.268-2.5.3-3.744.454-.317.039-.524-.157-.761-.291a.266.266,0,0,1-.126-.326c.041-.127.162-.148.275-.149.433,0,.867,0,1.3,0" transform="translate(3.937 15.057)" fill="#4d1747"/>
    <path id="Path_961" data-name="Path 961" d="M63.977,413.166c.926.141,1.859.279,2.791.431.144.023.333.077.339.252,0,.114-.152.187-.268.233a3.444,3.444,0,0,1-2.793-.658.225.225,0,0,1-.068-.257" transform="translate(3.946 14.809)" fill="#4d1747"/>
    <path id="Path_962" data-name="Path 962" d="M64.069,408.19a.832.832,0,0,1,.622.208,12.2,12.2,0,0,0,2.592,1.361,10.073,10.073,0,0,0,1.812.349c.171.018.374.026.37.245,0,.2-.214.175-.359.214a2.043,2.043,0,0,1-1.273-.077,26.95,26.95,0,0,1-2.6-1.068,2.022,2.022,0,0,1-1.166-1.232" transform="translate(3.984 13.043)" fill="#4d1747"/>
    <path id="Path_963" data-name="Path 963" d="M65.879,410.338c-.443-.055-.887-.1-1.326-.175a2.719,2.719,0,0,1-.582-.221c-.162-.069-.324-.191-.264-.371.053-.16.251-.142.4-.121.11.016.219.041.329.057.509.08,1.017.163,1.527.234.209.028.378.15.362.333-.02.225-.234.28-.451.263" transform="translate(3.852 13.488)" fill="#4d1747"/>
  </g>
</svg>
